<svg xmlns="http://www.w3.org/2000/svg" viewbox="0 0 423 423" width="253" height="423"><style>.shp2{fill:#000}</style><g id="Layer"><g id="Layer"><g id="Layer"><path id="Layer" d="M242.69 101.84c0 39.21-25.05 72.56-60.03 84.92v-72.91c0-16.58-13.43-30.02-30.01-30.02-16.58 0-30.02 13.44-30.02 30.02v72.91C87.66 174.4 62.6 141.05 62.6 101.84c0-49.73 40.31-90.04 90.05-90.04 49.73 0 90.04 40.31 90.04 90.04z" fill="#ff4646"/></g><g id="Layer"><path id="Layer" d="M184.66 216.99L233.04 279c7.12 9.12 8.35 21.53 3.18 31.88L184.66 414H64.6L14.83 289.56c-5.79-14.49.48-31.01 14.45-37.98l95.35-47.69v-90.04c0-16.58 13.44-30.02 30.02-30.02s30.01 13.44 30.01 30.02v103.14z" fill="#fce8d0"/></g></g><g id="Layer"><g id="Layer"><path id="Layer" class="shp2" d="M15.87 306.16c-3.97 0-7.72-2.38-9.29-6.29l-3.03-7.59c-7.67-19.19.79-41.43 19.26-50.65l89.82-44.92v-83.86c0-22.07 17.96-40.02 40.02-40.02 22.06 0 40.01 17.95 40.01 40.02v180.09c0 5.52-4.47 10-10 10-5.52 0-10-4.48-10-10V112.85c0-11.04-8.98-20.02-20.01-20.02-11.04 0-20.02 8.98-20.02 20.02v90.04c0 3.79-2.14 7.25-5.52 8.94l-95.36 47.69c-9.24 4.61-13.47 15.74-9.63 25.33l3.03 7.59c2.05 5.13-.44 10.95-5.57 13-1.22.49-2.47.72-3.71.72z"/></g><g id="Layer"><path id="Layer" class="shp2" d="M182.66 422.99H62.6c-4.08 0-7.76-2.48-9.28-6.28l-13.29-33.23c-2.05-5.13.44-10.95 5.57-13 5.12-2.05 10.95.44 13 5.57l10.78 26.94h107.1l48.8-97.58c3.43-6.87 2.6-15.21-2.12-21.26l-48.38-62.01c-3.4-4.36-2.62-10.64 1.73-14.04 4.36-3.4 10.64-2.62 14.04 1.73l48.37 62.02c9.44 12.08 11.11 28.77 4.25 42.5l-51.56 103.12a10.02 10.02 0 01-8.95 5.52z"/></g><g id="Layer"><path id="Layer" class="shp2" d="M182.66 195.76c-4.12 0-7.97-2.56-9.42-6.67-1.85-5.2.88-10.92 6.09-12.76 31.92-11.28 53.36-41.62 53.36-75.49 0-44.14-35.9-80.05-80.04-80.05-44.14 0-80.04 35.91-80.04 80.05 0 33.87 21.44 64.21 53.36 75.49 5.21 1.84 7.93 7.56 6.09 12.76a9.998 9.998 0 01-12.76 6.1c-39.89-14.1-66.69-52.02-66.69-94.35C52.61 45.68 97.49.8 152.65.8c55.17 0 100.04 44.88 100.04 100.04 0 42.33-26.8 80.25-66.69 94.35-1.1.39-2.23.57-3.34.57z"/></g><g id="Layer"><path id="Layer" class="shp2" d="M32.59 347.96c-5.53 0-10-4.47-10-10s4.47-10.01 10-10.01 10 4.48 10 10.01c0 5.53-4.47 10-10 10z"/></g></g></g></svg>
