<svg id="Capa_1" enable-background="new 0 0 512 512" height="512" viewBox="0 0 512 512" width="512" xmlns="http://www.w3.org/2000/svg"><g><g><path d="m443.804 46.743h-375.608c-10.699 0-19.372-8.673-19.372-19.372 0-10.698 8.673-19.371 19.372-19.371h375.609c10.699 0 19.371 8.673 19.371 19.372 0 10.698-8.673 19.371-19.372 19.371z" fill="#5a5a5a"/><path d="m443.804 28.743h-375.608c-7.448 0-13.904-4.208-17.146-10.371-1.415 2.69-2.225 5.749-2.225 9 0 10.698 8.673 19.371 19.372 19.371h375.609c10.698 0 19.371-8.673 19.371-19.371 0-3.251-.81-6.31-2.225-9-3.244 6.163-9.7 10.371-17.148 10.371z" fill="#4c4c4c"/><path d="m427.003 414.91-171.006 89.09-171-89.09v-368.167h342.006z" fill="#8bcaff"/><path d="m84.997 46.743h342.006v18h-342.006z" fill="#60b8ff"/><path d="m387.944 390.576-131.947 68.74-131.941-68.74v-343.833h263.888z" fill="#0083fd"/><path d="m124.056 46.743h263.887v18h-263.887z" fill="#0072fc"/><path d="m294.873 269.743h-77.746c-8.97 0-16.931-5.748-19.754-14.263l-14.292-43.114c-2.377-7.172 5.125-13.624 11.861-10.201l31.815 16.173 20.673-30.034c4.135-6.007 13.007-6.007 17.142 0l20.673 30.034 31.815-16.173c6.735-3.424 14.238 3.029 11.86 10.201l-14.292 43.114c-2.824 8.515-10.784 14.263-19.755 14.263z" fill="#ffe27a"/><path d="m196.134 251.743 1.239 3.737c2.823 8.515 10.784 14.263 19.754 14.263h77.746c8.971 0 16.931-5.748 19.754-14.263l1.239-3.737z" fill="#f9cf58"/></g><g><path d="m123.798 132.296c-4.151 0-7.515 3.365-7.515 7.515v251.029c0 2.801 1.558 5.37 4.042 6.664l132.199 68.875c1.088.567 2.281.85 3.473.85s2.384-.283 3.472-.85l132.204-68.875c2.484-1.294 4.043-3.863 4.043-6.664v-55.655c0-4.15-3.364-7.515-7.515-7.515s-7.515 3.364-7.515 7.515v51.096l-124.69 64.96-124.684-64.96v-246.471c.001-4.15-3.363-7.514-7.514-7.514z"/><path d="m444.172 0h-376.344c-14.846 0-26.924 12.078-26.924 26.924s12.078 26.924 26.924 26.924h9.32v361.372c0 2.801 1.558 5.37 4.042 6.664l171.335 89.265c1.088.567 2.281.85 3.473.85s2.384-.283 3.472-.85l171.341-89.265c2.485-1.294 4.043-3.863 4.043-6.664v-275.41c0-4.15-3.364-7.515-7.515-7.515s-7.515 3.365-7.515 7.515v270.852l-163.826 85.349-163.82-85.349v-356.814h24.107v55.903c0 4.15 3.364 7.515 7.515 7.515s7.515-3.364 7.515-7.515v-55.903h249.374v251.277c0 4.15 3.364 7.515 7.515 7.515s7.515-3.365 7.515-7.515v-251.277h24.107v55.903c0 4.15 3.364 7.515 7.515 7.515s7.515-3.364 7.515-7.515v-55.903h9.32c14.845 0 26.924-12.078 26.924-26.924s-12.082-26.924-26.928-26.924zm0 38.819h-376.344c-6.559 0-11.894-5.336-11.894-11.895s5.336-11.895 11.894-11.895h376.344c6.559 0 11.894 5.336 11.894 11.895s-5.335 11.895-11.894 11.895z"/><path d="m217.051 277.284h77.898c12.25 0 23.071-7.813 26.926-19.441l14.321-43.199c2.047-6.177.182-12.91-4.753-17.154-4.932-4.243-11.872-5.08-17.669-2.13l-26.013 13.223-16.983-24.674c-3.348-4.864-8.873-7.768-14.778-7.768s-11.43 2.904-14.778 7.768l-16.983 24.673-26.012-13.223c-5.803-2.949-12.737-2.112-17.67 2.13-4.934 4.243-6.799 10.976-4.752 17.154l14.321 43.199c3.854 11.63 14.674 19.442 26.925 19.442zm-26.695-68.398c.228-.196.433-.257.607-.257.198 0 .354.079.453.129l31.878 16.204c3.359 1.708 7.461.663 9.595-2.438l20.713-30.092c.755-1.097 1.827-1.261 2.398-1.261s1.643.164 2.398 1.26l20.713 30.092c2.134 3.102 6.237 4.147 9.595 2.438l31.879-16.204c.187-.095.573-.289 1.059.128.488.42.351.832.286 1.03l-14.321 43.199c-1.812 5.467-6.899 9.14-12.66 9.14h-77.898c-5.76 0-10.847-3.673-12.66-9.14l-14.321-43.198c-.065-.198-.202-.61.286-1.03z"/></g></g></svg>