<svg id="Capa_1" enable-background="new 0 0 513.242 513.242" height="512" viewBox="0 0 513.242 513.242" width="512" xmlns="http://www.w3.org/2000/svg"><g><g><g><path d="m443.061 489.459-.611-10.751c-1.505-26.494-10.078-52.102-24.828-74.162l-15.442-23.095-34.646-44.634h-209.515l-46.958 44.634-15.442 23.095c-14.75 22.06-23.323 47.668-24.828 74.162l-.611 10.751c-.453 7.97 5.888 14.682 13.871 14.682h345.139c7.983 0 14.324-6.712 13.871-14.682z" fill="#fed2a4"/></g><g id="XMLID_173_"><g><path d="m402.181 381.451-34.646-44.634h-177.74l-8.721 22.298h-46.514l-23.499 22.336-15.44 23.092c-14.75 22.061-23.324 47.669-24.83 74.165l-.611 10.751c-.453 7.97 5.888 14.682 13.871 14.682h72.9c-3.928-2.64-6.431-7.217-6.141-12.32l.611-10.752c.803-14.127 3.62-27.998 8.311-41.215 4.889-13.777 20.093-20.976 33.837-15.994 13.815 5.008 27.29 11.062 40.368 18.158l16.332 8.873h13.705l16.32-8.866c35.408-19.212 73.692-30.857 113.794-34.613l9.453-.888c4.59-.426 8.926-1.777 12.819-3.866z" fill="#ffbd86"/><path d="m402.001 7.501c9.63 0 15.51 10.6 10.41 18.77l-33.319 53.37c-1.568 2.512-1.793 5.623-.641 8.351 6.644 15.727 10.32 33.011 10.32 51.159v187.69l2.38 1.88c11.11 8.74 16.48 22.91 13.95 36.82 7.04 4.47 4.43 15.32-3.87 16.09l-9.48.89c-43.24 4.05-85.21 16.82-123.38 37.53l-10.75 5.84h-1l-10.75-5.84c-38.17-20.71-80.14-33.48-123.38-37.53l-9.48-.89c-5-.46-7.94-4.59-7.94-8.78 0-2.75 1.27-5.53 4.07-7.31-2.53-13.91 2.84-28.08 13.95-36.82l2.38-1.88v-187.69c0-36.35 14.73-69.27 38.56-93.09 23.82-23.82 56.73-38.56 93.09-38.56h144.88z" fill="#a79ba7"/></g></g><path d="m211.254 167.101c0-36.35 14.73-69.27 38.56-93.09 23.82-23.82 56.73-38.56 93.09-38.56h63.776l5.731-9.18c5.103-8.174-.774-18.77-10.409-18.77h-144.881c-36.36 0-69.27 14.74-93.09 38.56-23.83 23.82-38.56 56.74-38.56 93.09v187.69l-2.38 1.88c-11.11 8.74-16.48 22.91-13.95 36.82-2.8 1.78-4.07 4.56-4.07 7.31 0 4.19 2.94 8.32 7.94 8.78l9.48.89c22.778 2.133 45.196 6.711 66.899 13.572 19.496 6.161 38.418 14.158 56.48 23.958l10.75 5.84h1l10.75-5.84c38.17-20.71 80.14-33.48 123.38-37.53l9.48-.89c8.3-.77 10.91-11.62 3.87-16.09 2.53-13.91-2.84-28.08-13.95-36.82l-.464-.366c-37.765 5.393-74.313 17.463-107.915 35.695l-.795.395c-6.867 3.413-14.967 3.266-21.705-.395-12.742-6.913-25.91-12.931-39.406-18.037-5.819-2.202-9.655-7.781-9.652-14.003.018-37.861.041-164.909.041-164.909z" fill="#918291"/><path d="m231.301 159.011-19.271-4.742-37.454 8.675-15.535 14.428c-.32 3.65-.13 7.42.64 11.2 4.29 21.19 24.94 34.89 46.13 30.61 12.34-2.5 23.87-18.39 31.35-31.22 5.67-9.731 3.15-22.191-5.86-28.951z" fill="#f3f0f3"/><g id="XMLID_175_"><path d="m190.281 142.441c12.34-2.5 29.14 7.66 41.02 16.57l-72.26 18.36c1.47-16.84 13.83-31.41 31.24-34.93z" fill="#b5adb6"/><path d="m355.201 177.371-11.092-14.473-43.916-10.696-17.253 6.809c-9.01 6.76-11.53 19.22-5.86 28.95 7.48 12.83 19.01 28.72 31.35 31.22 21.19 4.28 41.84-9.42 46.13-30.61.771-3.78.961-7.55.641-11.2z" fill="#f3f0f3"/></g><path d="m355.201 177.371-72.26-18.36c11.88-8.91 28.68-19.07 41.02-16.57 17.41 3.52 29.77 18.09 31.24 34.93z" fill="#b5adb6"/></g><g><path d="m189.585 340.868c-16.645-1.342-32.583-5.956-47.371-13.713l-9.24-4.847v-66.768l12.786 7.104c10.928 6.071 22.746 10.029 35.126 11.762.353.049.703.073 1.05.073 3.681 0 6.893-2.712 7.418-6.461.574-4.103-2.286-7.894-6.388-8.468-10.546-1.476-20.612-4.847-29.921-10.019l-20.071-11.152v-41.389c0-4.142-3.357-7.5-7.5-7.5s-7.5 3.358-7.5 7.5v126.215c-11.897 9.617-18.105 24.393-16.783 39.463-3.163 3.84-4.39 8.954-3.161 14.058.565 2.349 1.603 4.454 2.994 6.245l-11.637 17.405c-15.483 23.156-24.502 50.096-26.082 77.905l-1.445 25.433c-.234 4.135 2.928 7.678 7.063 7.913.146.008.289.012.433.012 3.947 0 7.254-3.084 7.481-7.074l1.445-25.434c1.428-25.137 9.579-49.487 23.574-70.418l12.957-19.379 6.979.654c20.869 1.956 41.641 6.032 61.735 12.118.725.219 1.457.324 2.177.324 3.219 0 6.194-2.088 7.175-5.328 1.201-3.964-1.04-8.151-5.004-9.352-21.054-6.376-42.816-10.647-64.685-12.696l-9.48-.888c-.266-.025-.887-.083-1.095-.949-.208-.865.318-1.2.543-1.343 2.577-1.636 3.905-4.67 3.359-7.673-1.929-10.614 1.829-21.339 9.837-28.429l8.894 4.665c16.586 8.701 34.463 13.875 53.133 15.381.205.017.408.025.61.025 3.869 0 7.151-2.974 7.468-6.897.332-4.128-2.745-7.745-6.874-8.078z"/><path d="m154.178 439.321c-4.056-.839-8.025 1.769-8.864 5.826-2.588 12.513-3.9 25.337-3.9 38.115v22.48c0 4.142 3.357 7.5 7.5 7.5s7.5-3.358 7.5-7.5v-22.48c0-11.759 1.208-23.561 3.59-35.077.839-4.057-1.77-8.025-5.826-8.864z"/><path d="m451.384 503.716-1.445-25.433c-1.58-27.81-10.599-54.749-26.082-77.905l-11.186-16.73c1.672-1.926 2.904-4.271 3.542-6.921 1.228-5.104.002-10.218-3.161-14.058 1.322-15.07-4.886-29.846-16.783-39.463v-32.472c0-4.142-3.357-7.5-7.5-7.5s-7.5 3.358-7.5 7.5v31.574l-9.24 4.847c-14.788 7.757-30.727 12.371-47.371 13.713-4.129.333-7.206 3.95-6.873 8.079.316 3.924 3.599 6.897 7.468 6.897.201 0 .406-.008.61-.025 18.67-1.505 36.547-6.68 53.133-15.381l8.895-4.666c8.008 7.089 11.766 17.814 9.837 28.429-.546 3.003.782 6.037 3.359 7.673.225.143.751.478.543 1.343-.118.491-.369.718-.613.831-.22.034-.439.08-.657.134l-9.305.872c-44.497 4.169-86.976 17.092-126.256 38.409l-7.677 4.166-7.677-4.166c-9.636-5.229-19.664-10.035-29.807-14.284-3.817-1.602-8.214.198-9.815 4.02-1.6 3.82.199 8.215 4.021 9.815 9.681 4.056 19.251 8.642 28.447 13.633l10.754 5.836c1.098.596 2.328.908 3.577.908h1c1.249 0 2.479-.312 3.577-.908l10.754-5.836c37.49-20.345 78.032-32.679 120.5-36.658l6.038-.565 12.898 19.292c13.995 20.931 22.146 45.281 23.574 70.418l1.445 25.434c.228 3.991 3.534 7.074 7.481 7.074.144 0 .288-.004.433-.012 4.134-.236 7.296-3.779 7.062-7.914z"/><path d="m359.063 439.321c-4.056.839-6.664 4.808-5.825 8.864 2.382 11.516 3.59 23.317 3.59 35.077v22.48c0 4.142 3.357 7.5 7.5 7.5s7.5-3.358 7.5-7.5v-22.48c0-12.778-1.313-25.602-3.9-38.115-.84-4.057-4.809-6.664-8.865-5.826z"/><path d="m125.473 172.529c4.143 0 7.5-3.358 7.5-7.5v-25.881c0-16.24 3.139-31.759 8.835-45.99l1.721 1.892c6.828 7.512 16.567 11.82 26.72 11.82 4.143 0 7.5-3.358 7.5-7.5s-3.357-7.5-7.5-7.5c-5.936 0-11.629-2.519-15.62-6.911l-5.827-6.409c21.28-37.889 61.856-63.55 108.319-63.55h144.877c2.537 0 3.764 1.719 4.174 2.458s1.219 2.69-.125 4.843l-28.961 46.398c-5.057-8.601-11.014-16.685-17.78-24-2.813-3.04-7.558-3.227-10.599-.414-3.041 2.812-3.227 7.557-.415 10.599 9.568 10.347 17.368 22.377 22.935 35.294 6.664 15.483 10.042 31.938 10.042 48.971v81.119l-6.537 5.37c-6.315 5.188-13.929 8.555-22.017 9.736-4.099.599-6.936 4.407-6.337 8.505.545 3.731 3.749 6.417 7.411 6.417.361 0 .727-.026 1.094-.08 9.545-1.394 18.592-5.074 26.386-10.695v19.253c0 4.142 3.357 7.5 7.5 7.5s7.5-3.358 7.5-7.5v-34.944c0-.003 0-.007 0-.01v-84.672c0-19.069-3.779-37.5-11.238-54.849l33.741-54.056c3.86-6.185 4.055-13.685.518-20.061-3.537-6.375-10.001-10.182-17.292-10.182h-144.877c-76.727 0-139.147 62.421-139.147 139.147v25.881c-.001 4.143 3.357 7.501 7.499 7.501z"/><path d="m243.64 191.74c7.591-13.028 4.221-29.679-7.839-38.73-19.104-14.336-34.921-20.367-47.008-17.919-25.209 5.102-41.567 29.762-36.466 54.971 4.474 22.101 23.976 37.398 45.704 37.398 3.056 0 6.159-.303 9.267-.932 12.089-2.446 24.316-14.151 36.342-34.788zm-51.871-41.947c.793-.161 1.647-.24 2.56-.24 4.836 0 11.304 2.237 18.792 6.431l-43.697 11.357c4.124-8.734 12.172-15.489 22.345-17.548zm12.555 62.033c-17.115 3.465-33.833-7.637-37.295-24.739-.236-1.168-.399-2.333-.502-3.494l23.02-5.983v8.801c0 4.142 3.357 7.5 7.5 7.5s7.5-3.358 7.5-7.5v-12.7l24.66-6.409c3.933 4.662 4.661 11.416 1.473 16.887-9.365 16.068-18.971 26.142-26.356 27.637z"/><path d="m361.914 190.062c5.102-25.209-11.257-49.869-36.465-54.971-12.091-2.448-27.906 3.582-47.009 17.919-12.06 9.051-15.43 25.702-7.839 38.73 12.026 20.637 24.253 32.342 36.342 34.788 3.109.629 6.209.932 9.267.932 21.726 0 41.231-15.298 45.704-37.398zm-39.441-40.269c10.173 2.059 18.221 8.814 22.344 17.548l-43.698-11.358c8.899-4.985 16.356-7.204 21.354-6.19zm-6.268 62.665c-2.073 0-4.178-.206-6.287-.632-7.385-1.495-16.991-11.568-26.355-27.638-3.188-5.471-2.46-12.224 1.473-16.887l24.66 6.409v12.7c0 4.142 3.357 7.5 7.5 7.5s7.5-3.358 7.5-7.5v-8.801l23.02 5.983c-.103 1.16-.266 2.326-.502 3.494-3.037 14.995-16.267 25.373-31.009 25.372z"/></g></g></svg>