<svg height="512pt" viewBox="0 0 512.0005 512" width="512pt" xmlns="http://www.w3.org/2000/svg"><path d="m495.53125 163.527344c16.28125-81.398438 16.46875-145.824219 16.46875-148.527344 0-3.976562-1.578125-7.792969-4.394531-10.605469-2.8125-2.8125-6.625-4.394531-10.605469-4.394531-2.703125 0-67.128906.1875-148.527344 16.46875-29 5.796875-56.476562 12.9375-82.195312 21.3125-.175782.050781-.34375.109375-.515625.167969-16.648438 5.4375-32.5625 11.394531-47.644531 17.855469-18.445313 7.90625-35.6875 16.582031-51.671876 25.984374-.484374.257813-.957031.539063-1.410156.847657-25.644531 15.222656-48.03125 32.328125-66.867187 51.164062-37.402344 37.402344-58 87.125-58 140.015625 0 47.859375 16.867187 93.125 47.785156 129.015625l-83.558594 83.5625c-5.859375 5.859375-5.859375 15.355469 0 21.210938 2.929688 2.929687 6.765625 4.394531 10.605469 4.394531s7.679688-1.464844 10.605469-4.394531l83.5625-83.558594c35.886719 30.914063 81.152343 47.78125 129.011719 47.78125 52.894531 0 102.617187-20.59375 140.019531-57.992187 18.839843-18.839844 35.941406-41.230469 51.164062-66.875.308594-.453126.589844-.925782.847657-1.410157 9.402343-15.988281 18.078124-33.226562 25.980468-51.667969 6.472656-15.101562 12.433594-31.03125 17.878906-47.699218.046876-.140625.09375-.285156.136719-.425782 8.378907-25.730468 15.523438-53.21875 21.324219-82.230468zm-141.753906-117.527344c55.734375-11.1875 104.128906-14.554688 127.789062-15.566406-1.011718 23.664062-4.378906 72.058594-15.566406 127.789062-4.203125 20.9375-9.808594 44.203125-17.21875 68.242188l-142.039062.003906 87.257812-87.253906c5.855469-5.859375 5.855469-15.359375 0-21.214844-5.859375-5.859375-15.355469-5.859375-21.214844 0l-87.25 87.253906v-142.035156c24.039063-7.410156 47.304688-13.015625 68.242188-17.21875zm54.402344 277.523438h-198.492188l67.054688-67.054688 161.925781-.003906c-8.332031 22.644531-18.375 45.410156-30.488281 67.058594zm-152.644532-250.191407v161.917969l-67.058594 67.054688-.003906-198.484376c21.652344-12.113281 44.414063-22.15625 67.0625-30.488281zm-185.367187 200.484375c0-44.875 17.476562-87.066406 49.210937-118.800781 11.957032-11.957031 25.125-22.746094 39.09375-32.480469l.007813 209.769532-49.234375 49.238281c-25.296875-30.167969-39.078125-67.886719-39.078125-107.726563zm286.820312 118.808594c-31.734375 31.730469-73.929687 49.203125-118.808593 49.203125-39.835938 0-77.554688-13.78125-107.722657-39.074219l49.230469-49.230468h209.78125c-9.734375 13.972656-20.523438 27.140624-32.480469 39.101562zm0 0"/></svg>