<svg id="Capa_1" enable-background="new 0 0 512 512" height="512" viewBox="0 0 512 512" width="512" xmlns="http://www.w3.org/2000/svg"><g><g><path d="m416.662 356.316c-11.044-11.044-11.044-28.95 0-39.994l.006-.006c11.044-11.044 11.044-28.95 0-39.994l-20.003-20.003h-140.665-140.686l-20.003 20.003c-11.044 11.044-11.044 28.95 0 39.994l.006.006c11.044 11.044 11.044 28.95 0 39.994l-.006.006c-11.044 11.044-11.044 28.95 0 39.994l.006.006c37.873 37.873 99.279 56.808 160.683 56.806 61.397-.002 122.793-18.938 160.662-56.806 0 0 .006-.006.006-.006 11.044-11.044 11.044-28.95 0-39.994z" fill="#efedff"/><path d="m115.314 256.319-20.003 20.003c-11.044 11.044-11.044 28.95 0 39.994l.006.006c11.044 11.044 11.044 28.95 0 39.994l-.006.006c-11.044 11.044-11.044 28.95 0 39.994l.006.006c37.873 37.873 99.279 56.808 160.683 56.806v-196.809z" fill="#d4d4ff"/></g><g><path d="m296.697 390.471c-2.534-.907-5.108-1.729-7.716-2.468-10.49-2.976-21.552-4.577-32.983-4.577-66.744 0-121.072 54.34-121.072 121.075h242.147c0-52.027-33.18-97.134-80.376-114.03z" fill="#b28ae4"/><path d="m288.981 388.002c-10.49-2.976-21.552-4.577-32.983-4.577-66.744 0-121.072 54.34-121.072 121.075h66c0-20.623 5.215-40.072 14.377-57.111-.005-.002-.011-.005-.017-.007 15.36-28.572 41.859-50.342 73.695-59.38z" fill="#976bcf"/></g><g><g fill="#ffbd86"><circle cx="110.862" cy="251.129" r="36.081"/><circle cx="401.117" cy="251.129" r="36.081"/></g><g><path d="m322.534 122.123c-13.123-6.783-27.413-11.624-42.491-14.139-7.824-1.305-15.86-1.984-24.055-1.984-23.977 0-46.593 5.819-66.52 16.115-46.687 24.122-78.606 72.838-78.606 129.014 0 26.043 6.865 50.48 18.878 71.609 18.442 32.438 49.01 57.08 85.553 67.733 12.91 3.763 26.571 5.785 40.696 5.785 8.195 0 16.231-.682 24.055-1.99 5.661-.946 11.227-2.215 16.646-3.795 36.546-10.653 67.112-35.297 85.553-67.738 12.011-21.128 18.875-45.563 18.875-71.604-.001-56.167-31.908-104.88-78.584-129.006z" fill="#fed2a4"/><path d="m158.97 251.129c0-71.957 52.372-131.683 121.073-143.145-7.825-1.306-15.859-1.984-24.055-1.984-80.15 0-145.127 64.976-145.127 145.129 0 80.15 64.977 145.127 145.127 145.127 8.196 0 16.229-.684 24.055-1.99-68.701-11.462-121.073-71.182-121.073-143.137z" fill="#ffbd86"/><path d="m322.534 122.123c3.361 14.42 4.588 32.52-1.819 53.902-2.257 7.534 1.464 15.569 8.677 18.704l29.829 12.962c7.702 3.347 12.851 10.708 13.483 19.082 1.676 22.225-.574 44.744-6.843 66.5-2.694 9.351.549 19.516 8.458 25.561 2.374 1.815 5.075 3.1 7.924 3.9 12.011-21.128 18.875-45.563 18.875-71.604-.001-56.168-31.908-104.881-78.584-129.007z" fill="#efedff"/><path d="m146.139 293.272c-6.269-21.755-8.519-44.275-6.843-66.5.632-8.374 5.781-15.735 13.483-19.082l29.829-12.962c7.213-3.135 10.934-11.17 8.677-18.704-6.408-21.386-5.179-39.488-1.817-53.91-46.687 24.122-78.606 72.838-78.606 129.014 0 26.043 6.865 50.48 18.878 71.609 2.856-.799 5.563-2.086 7.942-3.905 7.908-6.044 11.151-16.209 8.457-25.56z" fill="#d4d4ff"/></g><g fill="#ffbd86"><ellipse cx="176.871" cy="300.5" rx="28.882" ry="23"/><ellipse cx="334.989" cy="300.5" rx="29" ry="23"/></g><g><path d="m286 309.667h-60c-16.569 0-30 12.386-30 40 0 31.094 16.953 65.006 35.617 59.112 5.444 12.643 14.333 20.888 24.383 20.888s18.939-8.245 24.383-20.888c18.663 5.894 35.617-28.017 35.617-59.112 0-27.615-13.431-40-30-40z" fill="#d4d4ff"/><path d="m303.87 294.693c-6.886 0-13.343-2.954-18.204-7.83-3.614-3.625-8.611-5.868-14.134-5.868-6.275 0-11.871 2.896-15.532 7.423-3.661-4.526-9.257-7.423-15.532-7.423-5.523 0-10.52 2.243-14.134 5.868-4.862 4.876-11.319 7.83-18.204 7.83-3.099 0-5.409 2.842-4.804 5.881 2.733 13.727 14.847 24.073 29.377 24.073 9.412 0 17.806-4.345 23.297-11.134 5.491 6.789 13.885 11.134 23.297 11.134 14.53 0 26.644-10.346 29.377-24.073.605-3.039-1.705-5.881-4.804-5.881z" fill="#efedff"/></g></g><g fill="#ffce71"><path d="m500.681 294.024c-4.182-2.559-8.767-4.525-13.638-5.778-1.254-4.871-3.219-9.456-5.778-13.638-3.117-5.092-10.413-5.092-13.529 0-2.56 4.182-4.524 8.768-5.779 13.638-4.87 1.254-9.455 3.219-13.638 5.778-2.546 1.558-3.819 4.161-3.819 6.764s1.273 5.206 3.819 6.764c4.182 2.559 8.77 4.534 13.641 5.788 1.254 4.87 3.216 9.447 5.776 13.629 3.116 5.092 10.412 5.092 13.529 0 2.559-4.182 4.522-8.759 5.776-13.629 4.87-1.254 9.458-3.228 13.64-5.788 5.092-3.115 5.092-10.412 0-13.528z"/><path d="m126.544 398.108c-4.879-2.986-10.229-5.279-15.911-6.741-1.463-5.683-3.756-11.032-6.742-15.911-3.636-5.941-12.149-5.941-15.784 0-2.986 4.879-5.279 10.229-6.742 15.911-5.682 1.463-11.031 3.755-15.911 6.741-2.969 1.818-4.454 4.855-4.454 7.892s1.485 6.074 4.456 7.892c4.879 2.986 10.231 5.289 15.914 6.752 1.463 5.682 3.753 11.021 6.739 15.901 3.635 5.941 12.148 5.941 15.784 0 2.986-4.879 5.275-10.218 6.739-15.901 5.682-1.463 11.035-3.766 15.913-6.752 5.94-3.636 5.94-12.148-.001-15.784z"/></g><g><g><path d="m367.187 98.572c-11.744-21.585-26.531-40.788-43.508-56.797-8.743-8.244-18.062-15.647-27.847-22.086-4.849-3.191-10.039-5.822-15.483-7.821-7.677-2.818-15.864-4.368-24.349-4.368-9.188 0-18.044 1.788-26.326 5.288-3.424 1.447-6.753 3.18-9.963 5.211-16.26 10.29-31.333 23.193-44.682 38.209-9.935 11.176-18.916 23.522-26.715 36.841-7.302 12.47-13.569 25.79-18.62 39.795-9.214 25.549-14.38 53.376-14.38 82.475 25.728-29.26 58.305-48.424 93.005-57.502 15.608-4.083 31.644-6.128 47.682-6.128 51.687.002 103.372 21.211 140.665 63.629-.001-42.718-10.953-82.694-29.479-116.746z" fill="#b28ae4"/><path d="m280.348 11.869c-7.676-2.819-15.863-4.369-24.348-4.369-9.188 0-18.044 1.788-26.326 5.288-3.424 1.447-6.753 3.18-9.963 5.211-16.26 10.29-31.333 23.193-44.682 38.209-9.935 11.176-18.916 23.522-26.715 36.841-7.302 12.47-13.569 25.79-18.62 39.795-9.214 25.549-14.38 53.376-14.38 82.475 25.728-29.26 58.305-48.424 93.005-57.502.112-5.471.446-10.956 1.032-16.442 5.447-51.008 31.083-97.597 70.997-129.506z" fill="#976bcf"/></g><path d="m311.95 50.281-7.304 14.883-16.331 2.387c-12.661 1.85-17.716 17.497-8.555 26.478l11.817 11.584-2.789 16.358c-2.163 12.681 11.072 22.351 22.396 16.364l14.607-7.723c13.2 6.979 8.854 4.682 14.607 7.723 11.323 5.987 24.559-3.683 22.396-16.364l-2.79-16.358 7.182-7.041c-11.744-21.585-26.531-40.788-43.508-56.797-4.758.642-9.257 3.47-11.728 8.506z" fill="#ffce71"/><path d="m141.916 152.442 9.027-4.773c8.158 4.313 5.472 2.893 9.027 4.773 6.998 3.7 15.177-2.276 13.84-10.113l-1.724-10.109 7.303-7.159c5.662-5.55 2.537-15.22-5.287-16.363l-10.092-1.475-4.513-9.197c-2.199-4.481-7.032-6.146-11.183-4.976-7.302 12.47-13.569 25.79-18.62 39.795l-1.617 9.485c-1.338 7.836 6.841 13.812 13.839 10.112z" fill="#ffb357"/><g><path d="m257.83 33.058c-1.281-.614-2.693-1.056-4.226-1.28l-15.298-2.236c-7.529-15.343-7.255-15.049-8.633-16.754-3.424 1.447-6.753 3.18-9.963 5.211-16.26 10.29-31.333 23.193-44.682 38.209.594.622 10.806 10.619 11.423 11.223l-2.613 15.323c-2.026 11.878 10.371 20.937 20.979 15.329l13.683-7.234c1.04.55 1.949 1.031 2.772 1.466 8.962 4.738 5.975 3.159 10.911 5.769 10.607 5.608 23.005-3.45 20.978-15.329l-2.613-15.323 11.07-10.851c7.472-7.326 4.845-19.384-3.788-23.523z" fill="#ffce71"/><path d="m253.605 31.777-15.298-2.236c-7.529-15.343-7.255-15.049-8.633-16.754-3.424 1.447-6.753 3.18-9.963 5.211-16.26 10.29-31.333 23.193-44.682 38.209.594.622 10.806 10.619 11.423 11.223l-2.613 15.323c-2.026 11.878 10.371 20.937 20.979 15.329l13.683-7.234c1.04.55 1.949 1.031 2.772 1.466 8.456-21.783 20.843-41.873 36.558-59.256-1.282-.614-2.694-1.057-4.226-1.281z" fill="#ffb357"/></g></g><g><path d="m429.094 396.737c6.084-10.929 2.158-24.72-8.77-30.805-13.66-7.606-30.899-2.698-38.505 10.962-8.502 15.269-4.495 34.116 8.658 44.73 3.534 2.852 6.43 6.413 8.328 10.538 3.171 6.894 3.47 14.766.831 21.88-3.264 8.8-4.402 18.247-3.321 27.571l2.653 22.885h24.293l-1.544-17.76c-1.104-12.691.827-25.462 5.632-37.26 6.847-16.809 7.466-35.513 1.745-52.741z" fill="#ce857a"/><g><circle cx="396.343" cy="460.64" fill="#ffbd86" r="20"/><circle cx="432.22" cy="457.933" fill="#fed2a4" r="30"/></g></g><g><path d="m193.541 259c-4.142 0-7.5 3.358-7.5 7.5v12c0 4.142 3.358 7.5 7.5 7.5s7.5-3.358 7.5-7.5v-12c0-4.142-3.358-7.5-7.5-7.5z"/><path d="m318.438 286c4.142 0 7.5-3.358 7.5-7.5v-12c0-4.142-3.358-7.5-7.5-7.5s-7.5 3.358-7.5 7.5v12c0 4.142 3.358 7.5 7.5 7.5z"/><path d="m444.404 313.95c3.65 2.234 7.515 4.048 11.531 5.414 1.365 4.021 3.176 7.882 5.403 11.52 6.046 9.884 20.287 9.861 26.323.001 2.227-3.64 4.037-7.5 5.403-11.521 4.017-1.366 7.88-3.18 11.53-5.414 4.637-2.837 7.404-7.758 7.404-13.163 0-5.404-2.769-10.324-7.405-13.161h.001c-3.642-2.229-7.505-4.04-11.528-5.406-1.366-4.024-3.177-7.888-5.405-11.529-6.047-9.879-20.289-9.864-26.322-.001-2.229 3.641-4.04 7.504-5.407 11.53-4.021 1.366-7.885 3.176-11.528 5.406-9.882 6.048-9.862 20.288 0 26.324zm7.829-13.529c3.61-2.209 7.511-3.862 11.593-4.912 2.646-.681 4.713-2.747 5.395-5.394 1.052-4.086 2.704-7.986 4.913-11.594.197-.319.541-.316.733.001 2.208 3.607 3.861 7.508 4.912 11.593.682 2.646 2.748 4.713 5.395 5.394 4.083 1.051 7.983 2.703 11.592 4.912h.001c.319.195.318.539-.001.734-3.623 2.218-7.524 3.874-11.595 4.921-2.646.681-4.711 2.747-5.393 5.392-1.052 4.081-2.704 7.979-4.911 11.585-.194.319-.538.319-.734-.001-2.207-3.605-3.859-7.503-4.91-11.583-.681-2.646-2.747-4.712-5.393-5.394-4.071-1.048-7.973-2.704-11.596-4.921-.319-.194-.319-.538-.001-.733z"/><g fill="#ffce71"><path d="m47.5 329h-6c-4.142 0-7.5 3.358-7.5 7.5s3.358 7.5 7.5 7.5h6c4.142 0 7.5-3.358 7.5-7.5s-3.358-7.5-7.5-7.5z"/><path d="m13.5 329h-6c-4.142 0-7.5 3.358-7.5 7.5s3.358 7.5 7.5 7.5h6c4.142 0 7.5-3.358 7.5-7.5s-3.358-7.5-7.5-7.5z"/><path d="m27.5 343c-4.142 0-7.5 3.358-7.5 7.5v6c0 4.142 3.358 7.5 7.5 7.5s7.5-3.358 7.5-7.5v-6c0-4.142-3.358-7.5-7.5-7.5z"/><path d="m27.5 330c4.142 0 7.5-3.358 7.5-7.5v-6c0-4.142-3.358-7.5-7.5-7.5s-7.5 3.358-7.5 7.5v6c0 4.142 3.358 7.5 7.5 7.5z"/><path d="m504.5 393.917h-6c-4.142 0-7.5 3.358-7.5 7.5s3.358 7.5 7.5 7.5h6c4.142 0 7.5-3.358 7.5-7.5s-3.358-7.5-7.5-7.5z"/><path d="m470.5 393.917h-6c-4.142 0-7.5 3.358-7.5 7.5s3.358 7.5 7.5 7.5h6c4.142 0 7.5-3.358 7.5-7.5s-3.358-7.5-7.5-7.5z"/><path d="m484.5 407.917c-4.142 0-7.5 3.358-7.5 7.5v6c0 4.142 3.358 7.5 7.5 7.5s7.5-3.358 7.5-7.5v-6c0-4.142-3.358-7.5-7.5-7.5z"/><path d="m477 381.417v6c0 4.142 3.358 7.5 7.5 7.5s7.5-3.358 7.5-7.5v-6c0-4.142-3.358-7.5-7.5-7.5s-7.5 3.358-7.5 7.5z"/></g><path d="m440.453 421.354c.067-8.128-1.048-16.166-3.337-24.006 4.828-11.524 1.945-24.756-6.817-33.263-5.146-14.134-14.42-14.176-14.42-27.766 0-5.551 2.162-10.769 6.092-14.7 10.143-10.142 13.118-24.957 8.187-37.921 8.948-8.122 14.541-19.85 14.541-32.57 0-22.881-17.7-41.904-40.646-43.458-1.143-39.126-11.074-76.471-29.566-111.115-1.949-3.654-6.495-5.036-10.147-3.085-3.654 1.951-5.036 6.494-3.085 10.148 15.491 29.022 24.595 60.063 27.158 92.509-15.964-14.831-34.034-26.73-53.926-35.491-24.797-10.921-51.185-16.459-78.428-16.459-49.366 0-96.646 18.719-132.49 51.935 7.947-100.4 76.651-162.734 109.025-176.416 7.373-3.116 15.248-4.696 23.406-4.696 7.375 0 14.698 1.315 21.764 3.909 16.226 5.957 43.839 25.231 68.261 59.95 2.384 3.388 7.061 4.204 10.45 1.819 3.388-2.383 4.202-7.062 1.819-10.449-22.073-31.379-50.95-56.44-75.361-65.401-8.726-3.203-17.788-4.828-26.933-4.828-10.175 0-20.015 1.978-29.246 5.88-46.998 19.861-115.681 97.167-118.813 201.792-23.089 1.557-40.661 20.701-40.661 43.457 0 12.697 5.61 24.384 14.586 32.452-4.994 12.992-2.031 27.867 8.147 38.045 8.102 8.102 8.102 21.286-.006 29.394-6.465 6.466-10.205 15.243-10.453 24.354-1.677 3.2-3.099 6.523-4.228 9.953-4.817 1.586-9.438 3.725-13.785 6.385-10.732 6.569-10.709 22.023 0 28.578 4.358 2.667 8.98 4.81 13.789 6.396 1.585 4.813 3.724 9.431 6.382 13.775 6.568 10.733 22.024 10.71 28.579 0 2.658-4.344 4.797-8.962 6.382-13.775 1.212-.4 2.413-.836 3.6-1.306 7.9 4.903 16.38 9.355 25.328 13.305-.941 1.571-1.852 3.161-2.726 4.773-1.974 3.642-.622 8.194 3.021 10.167 3.643 1.975 8.194.62 10.167-3.021 10.974-20.249 28.048-36.839 48.477-47.292 5.657 7.558 13.359 13.632 22.719 13.65 5.448 10.014 12.846 16.624 21.232 19.097v60.941h-105.818c.451-6.856 1.519-13.648 3.191-20.273 1.014-4.016-1.42-8.094-5.436-9.108-4.017-1.014-8.094 1.42-9.108 5.436-2.583 10.232-3.894 20.812-3.894 31.445 0 4.142 3.358 7.5 7.5 7.5h242.146c4.143 0 7.5-3.358 7.5-7.5 0-6.703-.538-13.321-1.553-19.814 1.995 1.11 4.139 1.981 6.398 2.569l2.099 18.108c.438 3.783 3.643 6.636 7.45 6.636h24.293c4.394 0 7.854-3.768 7.472-8.149l-.738-8.49c21.687 1.278 39.726-16.026 39.726-37.428.002-17.848-12.537-32.814-29.266-36.578zm-34.082 9.45c-2.414-6.08-6.262-11.043-11.185-15.016-10.57-8.53-13.437-23.354-6.815-35.245 5.583-10.025 18.28-13.64 28.305-8.059 7.297 4.063 9.928 13.306 5.865 20.603-2.849 5.115-9.326 6.96-14.442 4.112-3.619-2.017-8.186-.715-10.201 2.904s-.715 8.186 2.904 10.201c7.673 4.273 16.618 4.166 23.939.509.496 3.386.739 6.803.72 10.241-7.325 1.34-13.909 4.812-19.09 9.75zm23.327-179.675c0 13.907-10.128 26.012-23.66 28.422 3.573-18.75 3.567-37.742-.006-56.597 13.481 2.299 23.666 14.184 23.666 28.175zm-39.882-32.197c4.671 19.427 5.144 39.058 1.376 58.384-1.927 9.877 6.501 18.706 16.51 17.163 3.235-.5 6.346-1.365 9.298-2.544 1.473 6.747-.502 13.944-5.642 19.084-6.758 6.758-10.479 15.743-10.479 25.3 0 6.649 1.806 13.019 5.179 18.558-30.682.476-45.882 36.378-29.63 62.1-5.915 3.291-12.152 6.324-18.636 9.084-10.925-14.172-24.831-26.132-41.069-34.852 30.09-13.077 55.471-35.823 71.919-64.599 2.638-4.358.268-10.078-4.785-11.215-8.448-2.583-13.261-11.469-10.789-20.046 6.484-22.504 8.878-45.766 7.114-69.141-.846-11.215-7.732-20.947-17.972-25.396l-29.829-12.962c-3.723-1.618-5.649-5.776-4.481-9.672.369-1.231.711-2.468 1.04-3.707 22.771 10.119 43.42 25.103 60.876 44.461zm-74.941-49.996c-.409 1.65-.854 3.298-1.345 4.937-3.346 11.168 2.188 23.092 12.872 27.734l29.829 12.963c5.121 2.225 8.566 7.117 8.993 12.767 1.629 21.589-.582 43.074-6.571 63.859-3.906 13.557 1.647 27.446 12.799 34.795-12.736 19.569-30.211 35.609-50.581 46.547 4.436-19.35 4.47-44.587-9.01-59.297 1.934-3.419 3.367-7.176 4.168-11.202 1.532-7.688-4.34-14.846-12.159-14.846-4.698 0-9.277-1.998-12.893-5.625-9.325-9.352-24.022-10.759-34.977-3.251-10.934-7.496-25.638-6.115-34.977 3.251-3.616 3.627-8.195 5.625-12.893 5.625-7.824 0-13.69 7.163-12.159 14.845.802 4.026 2.234 7.784 4.169 11.203-13.475 14.703-13.444 39.965-9.008 59.309-20.37-10.935-37.847-26.977-50.588-46.557 11.15-7.346 16.71-21.235 12.802-34.798-5.988-20.783-8.199-42.268-6.571-63.858.427-5.65 3.873-10.542 8.994-12.768l29.828-12.962c10.685-4.643 16.219-16.566 12.873-27.736-.474-1.582-.904-3.174-1.301-4.768 18.745-6.493 38.625-9.925 58.89-9.925 20.435 0 40.213 3.343 58.816 9.758zm-53.043 139.86c-3.003-3.712-8.665-3.706-11.663 0-11.505 14.222-33.39 9.119-38.715-6.777 7.495-.786 14.566-4.218 20.192-9.861 5.245-5.262 13.845-4.806 18.522.976 3.003 3.712 8.666 3.706 11.663 0 4.687-5.795 13.293-6.222 18.522-.977 5.626 5.644 12.696 9.076 20.192 9.861-5.393 16.109-27.307 20.88-38.713 6.778zm-155.884-85.842c-3.548 18.748-3.561 37.651-.026 56.338-13.523-2.355-23.642-14.347-23.642-28.163 0-13.973 10.166-25.873 23.668-28.175zm2.813 190.427c-2.646.681-4.712 2.747-5.394 5.393-1.256 4.879-3.232 9.542-5.873 13.856-.713 1.166-2.274 1.17-2.99 0-2.641-4.315-4.617-8.976-5.873-13.855-.681-2.646-2.748-4.712-5.394-5.393-4.869-1.253-9.535-3.234-13.869-5.886-1.17-.716-1.166-2.277 0-2.989 4.316-2.641 8.981-4.618 13.865-5.875 2.646-.681 4.712-2.747 5.394-5.392 1.26-4.889 3.237-9.555 5.877-13.868.714-1.167 2.275-1.167 2.989 0 2.641 4.315 4.618 8.981 5.875 13.866.681 2.646 2.748 4.712 5.394 5.394 4.885 1.257 9.55 3.234 13.865 5.875 1.168.715 1.168 2.275 0 2.99-4.331 2.65-8.997 4.63-13.866 5.884zm45.456 12.697c-6.79-2.888-13.287-6.086-19.449-9.555 6.247-7.673 4.547-19.392-4.309-24.812-4.346-2.66-8.967-4.799-13.785-6.385-1.586-4.817-3.726-9.439-6.386-13.785-2.583-4.222-6.759-7.009-11.497-7.801.563-.736 1.16-1.451 1.828-2.119 13.951-13.951 13.951-36.65-.006-50.606-5.187-5.187-7.144-12.477-5.584-19.284 2.956 1.164 6.072 2.014 9.311 2.501 9.964 1.495 18.339-7.297 16.435-17.131-3.736-19.285-3.258-38.848 1.39-58.177 17.138-19.098 37.964-34.091 60.939-44.28.316 1.182.645 2.361.996 3.535 1.167 3.897-.759 8.055-4.482 9.673l-29.828 12.962c-10.24 4.45-17.126 14.181-17.973 25.396-1.763 23.375.631 46.637 7.115 69.141 2.494 8.655-2.417 17.647-11.109 20.136-5.071 1.349-7.226 7.335-4.2 11.596 16.463 28.565 41.737 51.142 71.66 64.141-15.948 8.596-29.986 20.533-41.066 34.854zm84.289-20.265c-1.52-3.53-5.467-5.347-9.147-4.186-16.7 5.275-36.564-54.823-19.228-76.998 13.423 10.044 32.521 10.174 45.869-.565 13.454 10.83 32.576 10.518 45.87.565 17.328 22.163-2.514 82.28-19.228 76.999-3.673-1.158-7.625.649-9.147 4.186-4.408 10.238-10.948 16.35-17.494 16.35-6.547-.001-13.087-6.114-17.495-16.351zm24.983 91.187v-60.935c8.395-2.468 15.801-9.081 21.253-19.103 9.379-.019 17.08-6.114 22.723-13.656 35.221 17.959 59.183 53.299 61.859 93.694zm102.902-58.312c7.114-3.141 13.934-6.606 20.398-10.355 1.77 1.592 3.216 3.372 4.336 5.31-8.549 1.649-15.698 7.268-19.449 14.858-1.625-3.346-3.381-6.624-5.285-9.813zm17.452 21.952c0-6.784 5.436-12.311 12.179-12.484-2.19 8.1-1.651 16.872 1.885 24.876-7.608.956-14.064-5.013-14.064-12.392zm31.237 36.36h-9.432l-1.172-10.106c.941-.292 1.87-.619 2.775-1.014 2.216 1.982 4.667 3.705 7.307 5.121zm17.141-16.567c-12.406 0-22.5-10.093-22.5-22.5s10.094-22.5 22.5-22.5 22.5 10.093 22.5 22.5-10.094 22.5-22.5 22.5z"/></g></g></svg>