<svg id="Capa_1" enable-background="new 0 0 512 512" height="512" viewBox="0 0 512 512" width="512" xmlns="http://www.w3.org/2000/svg"><path d="m455.477 257.878 32.894 77.507c10.345 24.374 10.802 51.817 1.274 76.522-15.168 39.332-52.978 65.275-95.133 65.275h-83.655-109.714-83.655c-42.156 0-79.965-25.942-95.133-65.275-9.527-24.705-9.071-52.148 1.274-76.522l32.894-77.507z" fill="#996acc"/><path d="m52.355 411.907c-9.528-24.705-9.071-52.148 1.274-76.522l32.894-77.507h-30l-32.894 77.507c-10.345 24.374-10.802 51.817-1.274 76.522 15.168 39.332 52.978 65.275 95.133 65.275h30c-42.156 0-79.965-25.943-95.133-65.275z" fill="#6d36ab"/><circle cx="256" cy="325.057" fill="#80e0b7" r="177.525"/><path d="m108.475 325.057c0-92.991 71.502-169.271 162.525-176.888-4.946-.414-9.947-.637-15-.637-98.044 0-177.525 79.48-177.525 177.525 0 98.044 79.48 177.525 177.525 177.525 5.053 0 10.054-.223 15-.637-91.023-7.617-162.525-83.896-162.525-176.888z" fill="#00b762"/><path d="m438.175 220.067-182.175 27.457-182.176-27.457 38.446-59.114h287.46z" fill="#996acc"/><path d="m103.824 220.067 38.446-59.114h-30l-38.446 59.114 182.176 27.457 15-2.261z" fill="#6d36ab"/><path d="m399.73 160.953h-287.46l73.93-113.675c15.36-23.619 41.628-37.861 69.8-37.861 14.081 0 27.699 3.566 39.705 10.072 12.006 6.517 22.421 15.974 30.096 27.789z" fill="#5c576e"/><path d="m270.996 10.786c-4.903-.898-9.918-1.369-14.996-1.369-28.172 0-54.44 14.242-69.8 37.861l-73.93 113.675h30l73.93-113.675c12.589-19.358 32.508-32.411 54.796-36.492z" fill="#423e4f"/><path d="m290.273 137.383h-68.547c-11.766 0-21.304 9.538-21.304 21.304v88.838h111.154v-88.838c.001-11.765-9.537-21.304-21.303-21.304z" fill="#f9d171"/><path d="m230.639 167.6h50.721v79.924h-50.721z" fill="#996acc"/><path d="m484.034 220.066h-456.068c-11.303 0-20.466 9.163-20.466 20.466v13.986c0 11.303 9.163 20.466 20.466 20.466h456.068c11.303 0 20.466-9.163 20.466-20.466v-13.986c0-11.303-9.163-20.466-20.466-20.466z" fill="#5c576e"/><path d="m37.5 254.518v-13.986c0-11.303 9.163-20.466 20.466-20.466h-30c-11.303 0-20.466 9.163-20.466 20.466v13.986c0 11.303 9.163 20.466 20.466 20.466h30c-11.303 0-20.466-9.163-20.466-20.466z" fill="#423e4f"/><ellipse cx="156.587" cy="380.551" fill="#ffa1ac" rx="36.682" ry="29.211"/><ellipse cx="355.413" cy="380.551" fill="#ffa1ac" rx="36.681" ry="29.211"/><path d="m281.501 346.292c-3.123-2.721-7.86-2.396-10.582.727-7.901 9.066-21.946 9.057-29.838 0-2.722-3.123-7.459-3.448-10.582-.727-3.123 2.722-3.448 7.459-.727 10.582 13.881 15.928 38.59 15.91 52.456 0 2.721-3.123 2.396-7.861-.727-10.582z"/><path d="m194.679 324.826-30.071-8.058c-4.002-1.071-8.114 1.302-9.186 5.304-1.072 4.001 1.302 8.113 5.303 9.186l11.029 2.955c-.814 1.199-1.29 2.647-1.29 4.205v12.953c0 4.142 3.358 7.5 7.5 7.5s7.5-3.358 7.5-7.5c-.015-14.022.027-12.737-.027-13.492l5.359 1.436c4.007 1.071 8.115-1.306 9.186-5.304 1.072-4.001-1.302-8.113-5.303-9.185z"/><path d="m347.392 316.768-30.071 8.058c-4.001 1.072-6.375 5.185-5.303 9.186 1.071 3.999 5.179 6.375 9.186 5.304l5.359-1.436c-.054.765-.012-.582-.027 13.492 0 4.142 3.358 7.5 7.5 7.5s7.5-3.358 7.5-7.5v-12.953c0-1.559-.476-3.006-1.29-4.205l11.029-2.955c4.001-1.072 6.375-5.185 5.303-9.186s-5.183-6.376-9.186-5.305z"/><path d="m484.034 212.527h-41.79c-6.429-9.885-103.928-159.8-110.155-169.374-35.292-54.323-116.047-55.56-152.177-.003l-6.343 9.753c-2.258 3.472-1.274 8.118 2.198 10.376 3.473 2.259 8.118 1.274 10.376-2.198l6.343-9.753c30.063-46.228 97.457-45.514 127.026 0l66.393 102.086h-67.305c-2.488-13.438-14.285-23.57-28.327-23.57-73.252.014-69.126-.076-71.337.137-12.733 1.237-23.203 10.833-25.537 23.433h-67.305l43.331-66.626c2.258-3.472 1.274-8.118-2.198-10.376-3.472-2.259-8.118-1.275-10.376 2.198-3.357 5.162-82.65 127.083-87.094 133.917h-41.79c-15.422 0-27.967 12.545-27.967 27.966v13.986c0 15.421 12.545 27.966 27.966 27.966h9.966l-21.208 49.97c-11.166 26.31-11.651 55.485-1.368 82.151 7.99 20.718 21.892 38.31 40.201 50.873s39.725 19.204 61.93 19.204h45.049c57.419 33.749 129.055 34.015 186.926 0h45.049c29.469 0 58.141-12.16 78.662-33.362 2.881-2.977 2.803-7.725-.173-10.605-2.977-2.881-7.725-2.802-10.605.173-17.712 18.299-42.455 28.794-67.884 28.794h-23.116c58.038-46.389 81.063-121.719 64.693-187.198h21.683l23.695 55.831c11.006 25.933 9.861 54.793-2.722 79.625-1.872 3.695-.394 8.208 3.301 10.08 3.694 1.871 8.208.395 10.08-3.301 14.604-28.825 15.877-62.273 3.148-92.264l-21.208-49.97h9.966c15.42 0 27.966-12.545 27.966-27.966v-13.986c.003-15.422-12.543-27.967-27.963-27.967zm-88.373-44.113 28.69 44.113h-105.275v-44.113zm-105.388-23.57c7.611 0 13.804 6.192 13.804 13.804v53.879h-15.217v-44.966c0-4.142-3.358-7.5-7.5-7.5h-50.721c-4.142 0-7.5 3.358-7.5 7.5v44.966h-15.216c0-16.606 0-37.945 0-53.879 0-7.611 6.192-13.804 13.804-13.804zm-16.413 67.683h-35.721v-37.466h35.721zm-157.522-44.113h76.584v44.113h-105.273zm1.15 301.229c-19.163 0-37.643-5.73-53.444-16.572s-27.797-26.022-34.692-43.902c-8.875-23.012-8.456-48.189 1.18-70.894l23.695-55.831h21.683c-16.373 65.493 6.535 140.713 64.693 187.198h-23.115zm-26.121-187.198h329.265c27.59 107.47-53.418 212.598-164.632 212.598-111.844 0-191.984-105.059-164.633-212.598zm405.633-27.966c0 7.149-5.816 12.966-12.966 12.966-27.403 0-430.513 0-456.068 0-7.149 0-12.966-5.817-12.966-12.966v-13.986c0-7.149 5.816-12.966 12.966-12.966h456.068c7.149 0 12.966 5.816 12.966 12.966z"/></svg>