<svg id="Layer_1" enable-background="new 0 0 512.001 512.001" height="512" viewBox="0 0 512.001 512.001" width="512" xmlns="http://www.w3.org/2000/svg"><g><g clip-rule="evenodd" fill-rule="evenodd"><path d="m10 98.501h75.999v60h-75.999z" fill="#ffcd69"/><path d="m147.999 98.501h140v60h-140z" fill="#ffcd69"/><path d="m287.999 98.501v60 20.001c0 38.5-31.499 70-70 70s-70-31.499-70-70v-20.001-60-20.001h-62v20.001 60 165.079l125.349 75.444c4.04 2.529 9.322 2.747 13.682.118l124.968-75.215v-165.426-60-20.001h-62v20.001z" fill="#d1aee5"/><path d="m349.999 323.928-124.969 75.215c-4.36 2.628-9.643 2.41-13.682-.118l-125.349-75.444v41.118c.004 4.212 2.161 8.319 6.032 10.653l119.36 71.839c3.847 2.408 8.876 2.616 13.029.113l118.998-71.621c3.918-2.098 6.582-6.23 6.582-10.984v-40.771z" fill="#b278d3"/><path d="m349.999 158.501c30.025 0 67.541 10.157 100.347 26.606l1.695-114.07c-33.203 16.953-71.499 27.464-102.042 27.464z" fill="#ffcd69"/><path d="m452.041 71.037-1.695 114.07c19.841 9.948 37.959 22.198 51.655 35.894v-185c-13.305 13.305-30.783 25.245-49.96 35.036z" fill="#ffc144"/></g><g><path d="m505.828 26.762c-3.737-1.549-8.039-.691-10.898 2.167-30.7 30.7-88.626 55.852-134.931 59.182v-9.611c0-5.523-4.478-10-10-10h-62c-5.522 0-10 4.477-10 10v10h-119.999-.001v-10c0-5.523-4.478-10-10-10h-62c-5.522 0-10 4.477-10 10v10h-65.999c-5.522 0-10 4.477-10 10v60c0 5.523 4.478 10 10 10h65.999v196.207c.007 7.811 4.172 15.17 10.876 19.211l9.75 5.868v21.258c0 5.523 4.478 10 10 10s10-4.477 10-10v-9.22l17.125 10.307v21.257c0 5.523 4.478 10 10 10s10-4.477 10-10v-9.22l17.124 10.307v21.258c0 5.523 4.478 10 10 10s10-4.477 10-10v-9.22l15.299 9.208c.596.369 1.208.697 1.826 1.006v19.273c0 5.523 4.478 10 10 10s10-4.477 10-10v-19.269c.533-.267 1.061-.549 1.577-.86l15.548-9.358v9.22c0 5.523 4.478 10 10 10s10-4.477 10-10v-21.258l17.124-10.306v9.22c0 5.523 4.478 10 10 10s10-4.477 10-10v-21.257l17.125-10.307v9.22c0 5.523 4.478 10 10 10s10-4.477 10-10v-21.257l9.018-5.427c7.168-3.956 11.608-11.463 11.608-19.662v-195.821c46.364 3.293 104.025 28.289 134.931 59.195 1.913 1.913 4.471 2.929 7.073 2.929 1.288 0 2.588-.249 3.825-.762 3.736-1.548 6.173-5.194 6.173-9.239v-185c0-4.045-2.437-7.691-6.173-9.239zm-347.829 141.739s.001 0 0 0h120v10c0 33.084-26.916 60-60 60s-60-26.916-60-60zm.001-60h119.999v40h-119.999-.001l.001-40c-.001 0 0 0 0 0zm-138 40v-40h55.999v40zm318.696 218.366c-.147.079-.293.162-.436.248l-119.003 71.624c-.95.572-1.946.361-2.562-.025-.05-.031-.099-.061-.149-.091l-119.353-71.836c-1.107-.667-1.194-1.774-1.194-2.088v-23.428l9.88 5.946c1.613.971 3.391 1.434 5.146 1.434 3.393 0 6.701-1.727 8.577-4.845 2.849-4.732 1.321-10.876-3.411-13.725l-20.192-12.153v-229.428h42v90.001c0 44.112 35.888 80 80 80s80-35.888 80-80v-90.001h42v229.776l-120.132 72.302c-1.188.717-2.438.455-3.212-.03-.05-.031-.1-.062-.15-.092l-23.193-13.959c-4.73-2.848-10.877-1.321-13.724 3.411-2.849 4.732-1.321 10.876 3.411 13.725l23.126 13.919c3.744 2.322 7.952 3.485 12.162 3.485 4.109 0 8.22-1.108 11.899-3.327l109.813-66.092v23.081c0 1.084-.673 1.831-1.303 2.168zm21.303-218.022v-40.684c26.116-1.653 55.146-9.462 81.939-21.264l-1.509 82.571c-1.745-.754-3.498-1.498-5.268-2.221-25.738-10.508-52.078-16.923-75.162-18.402zm132.002 50.278c-9.457-7.202-20.167-13.989-31.742-20.136l1.863-101.973c10.734-5.82 20.83-12.25 29.879-19.138z"/><path d="m149.6 351.855h-.007c-5.522 0-9.996 4.477-9.996 10s4.48 10 10.003 10 10-4.477 10-10-4.478-10-10-10z"/></g></g></svg>