<svg id="Capa_1" enable-background="new 0 0 512.033 512.033" height="512" viewBox="0 0 512.033 512.033" width="512" xmlns="http://www.w3.org/2000/svg"><g><path d="m70.644 7.5c-5.523 0-10 4.477-10 10v323.27c0 105.27 138.271 126.52 183.304 159.758 7.176 5.296 16.961 5.296 24.137 0 45.033-33.238 183.304-54.488 183.304-159.758v-323.27c0-5.523-4.477-10-10-10z" fill="#a69ca7"/><path d="m451.386 17.5v323.269c0 58.2-42.26 90.72-87.66 113.78 27.16-20.99 47.07-48.84 47.07-88.78v-348.269c0-5.52-4.47-10-10-10h40.59c5.53 0 10 4.48 10 10z" fill="#918291"/><path d="m256.016 433.636c-11.835-6.989-25.835-13.01-41.47-19.733-23.084-9.928-49.249-21.18-67.963-36.234-17.711-14.248-25.61-29.126-25.61-48.242v-254.896h270.086v254.896c0 19.115-7.899 33.994-25.61 48.242-18.714 15.055-44.879 26.307-67.963 36.234-15.635 6.723-29.634 12.744-41.47 19.733z" fill="#f2eff2"/><path d="m391.056 74.53v254.899c0 19.11-7.9 33.99-25.61 48.24-12.28 9.88-27.79 18.13-43.52 25.42 2.53-1.74 4.96-3.55 7.28-5.42 17.71-14.25 25.61-29.13 25.61-48.24v-274.899z" fill="#e1dde1"/><g><path d="m391.056 155.729v51.31h-108.63v213.409c-9.66 4.3-18.52 8.53-26.41 13.19-7.89-4.66-16.75-8.89-26.41-13.19v-213.409h-108.63v-51.31h108.63v-81.2h52.82v81.2z" fill="#fcc16d"/><path d="m354.816 155.729h36.24v51.31h-36.24z" fill="#fca62f"/></g><g><path d="m60.644 192.438c4.142 0 7.5-3.358 7.5-7.5v-167.438c0-1.378 1.122-2.5 2.5-2.5h259.989c4.142 0 7.5-3.358 7.5-7.5s-3.358-7.5-7.5-7.5h-259.989c-9.649 0-17.5 7.851-17.5 17.5v167.438c0 4.143 3.358 7.5 7.5 7.5z"/><path d="m441.389 0h-75.361c-4.142 0-7.5 3.358-7.5 7.5s3.358 7.5 7.5 7.5h75.361c1.378 0 2.5 1.122 2.5 2.5v323.27c0 72.295-70.596 102.655-127.32 127.049-21.597 9.288-40.248 17.309-52.938 26.675-4.554 3.361-10.674 3.361-15.229 0-12.689-9.366-31.341-17.387-52.938-26.675-56.725-24.394-127.32-54.754-127.32-127.049v-120.436c0-4.142-3.358-7.5-7.5-7.5s-7.5 3.358-7.5 7.5v120.436c0 82.173 78.833 116.075 136.395 140.829 20.744 8.921 38.659 16.625 49.956 24.963 4.942 3.647 10.731 5.471 16.522 5.471 5.79 0 11.582-1.824 16.522-5.471 11.297-8.338 29.212-16.042 49.956-24.963 57.562-24.754 136.395-58.656 136.395-140.829v-323.27c-.001-9.649-7.852-17.5-17.501-17.5z"/><path d="m391.059 67.031h-270.086c-4.142 0-7.5 3.358-7.5 7.5v254.896c0 21.308 9.027 38.494 28.409 54.085 19.509 15.694 46.17 27.161 69.701 37.281 15.666 6.737 29.194 12.555 40.619 19.301 1.176.695 2.495 1.042 3.813 1.042s2.637-.347 3.813-1.042c11.425-6.746 24.954-12.564 40.619-19.301 8.705-3.743 18.571-7.986 28.214-12.569 3.741-1.778 5.333-6.252 3.555-9.993-1.778-3.742-6.252-5.333-9.993-3.555-9.39 4.462-19.118 8.646-27.702 12.338-1.556.669-3.082 1.326-4.597 1.979v-194.454h93.633v114.888c0 16.856-6.822 29.536-22.812 42.398-2.529 2.035-5.339 4.086-8.591 6.272-3.438 2.311-4.351 6.971-2.041 10.409 2.311 3.438 6.972 4.351 10.409 2.041 3.61-2.427 6.759-4.728 9.625-7.034 19.382-15.591 28.409-32.777 28.409-54.085v-254.897c.003-4.142-3.355-7.5-7.497-7.5zm-7.5 81.198h-93.633v-66.198h93.633zm-108.633-46.545h-37.819v-19.653h37.819zm-52.819-19.653v66.199h-93.633v-66.199zm-93.634 117.508v-36.31h17.842v36.31zm22.812 172.286c-15.989-12.862-22.812-25.542-22.812-42.398v-114.888h93.633v194.453c-1.518-.655-3.047-1.313-4.605-1.983-22.64-9.737-48.302-20.773-66.216-35.184zm104.731 53.169c-5.9-3.279-12.192-6.335-18.91-9.394v-11.263h37.819v11.263c-6.716 3.058-13.009 6.115-18.909 9.394zm26.41-225.455c-4.142 0-7.5 3.358-7.5 7.5v182.299h-37.819v-182.299c0-4.142-3.358-7.5-7.5-7.5h-68.291v-36.31h68.291c4.142 0 7.5-3.358 7.5-7.5v-39.046h37.819v39.046c0 4.142 3.358 7.5 7.5 7.5h68.291v36.31zm83.291 0v-36.31h17.842v36.31z"/><path d="m94.334 34.229h-.092c-.014 0-.027 0-.041 0-4.123 0-7.431 3.332-7.453 7.46-.022 4.142 3.364 7.518 7.506 7.54h.041c4.123 0 7.477-3.332 7.499-7.46.023-4.143-3.318-7.519-7.46-7.54z"/><path d="m175.179 49.2c4.123 0 7.477-3.332 7.499-7.46.022-4.142-3.318-7.518-7.46-7.54h-.092c-.014 0-.027 0-.041 0-4.123 0-7.431 3.332-7.453 7.46-.022 4.142 3.364 7.518 7.506 7.54z"/><path d="m256.063 49.171c4.123 0 7.477-3.332 7.499-7.46.022-4.142-3.318-7.518-7.46-7.54h-.092c-4.136-.001-7.472 3.318-7.494 7.46s3.364 7.518 7.506 7.54z"/><path d="m336.894 34.142c-.014 0-.027 0-.041 0-4.123 0-7.431 3.332-7.453 7.46-.022 4.142 3.364 7.518 7.506 7.54h.041c4.123 0 7.477-3.332 7.499-7.46.022-4.142-3.318-7.518-7.46-7.54z"/><path d="m417.791 49.113h.041c4.123 0 7.477-3.332 7.499-7.46.022-4.142-3.318-7.518-7.46-7.54h-.092c-.014 0-.027 0-.041 0-4.123 0-7.431 3.332-7.453 7.46-.023 4.142 3.364 7.518 7.506 7.54z"/><path d="m94.334 103.457h-.092c-4.144.003-7.471 3.319-7.493 7.46-.022 4.142 3.364 7.518 7.506 7.54h.041c4.123 0 7.477-3.332 7.499-7.46.022-4.143-3.319-7.518-7.461-7.54z"/><path d="m417.791 118.341h.041c4.123 0 7.477-3.332 7.499-7.46.022-4.142-3.318-7.518-7.46-7.54h-.092c-.014 0-.027 0-.041 0-4.123 0-7.431 3.332-7.453 7.46-.023 4.142 3.364 7.518 7.506 7.54z"/><path d="m94.295 172.685h-.092c-4.142 0-7.454 3.358-7.454 7.5s3.404 7.5 7.546 7.5 7.5-3.358 7.5-7.5-3.358-7.5-7.5-7.5z"/><path d="m417.83 187.569c4.142 0 7.5-3.358 7.5-7.5s-3.358-7.5-7.5-7.5h-.092c-4.142 0-7.454 3.358-7.454 7.5s3.404 7.5 7.546 7.5z"/><path d="m94.295 241.913h-.092c-4.142 0-7.454 3.358-7.454 7.5s3.404 7.5 7.546 7.5 7.5-3.358 7.5-7.5-3.358-7.5-7.5-7.5z"/><path d="m417.83 256.797c4.142 0 7.5-3.358 7.5-7.5s-3.358-7.5-7.5-7.5h-.092c-4.142 0-7.454 3.358-7.454 7.5s3.404 7.5 7.546 7.5z"/><path d="m94.242 311.141c-.014 0-.027 0-.041 0-4.123 0-7.431 3.332-7.453 7.46-.022 4.142 3.364 7.518 7.506 7.54h.041c4.123 0 7.477-3.332 7.499-7.46.022-4.142-3.318-7.518-7.46-7.54z"/><path d="m417.778 311.025c-4.127.009-7.471 3.319-7.493 7.46-.022 4.142 3.364 7.518 7.506 7.54h.041c4.123 0 7.477-3.332 7.499-7.46.022-4.142-3.318-7.518-7.46-7.54z"/><path d="m114.242 380.369c-.014 0-.027 0-.041 0-4.123 0-7.431 3.332-7.453 7.46-.022 4.142 3.364 7.518 7.506 7.54h.041c4.123 0 7.477-3.332 7.499-7.46.022-4.142-3.318-7.518-7.46-7.54z"/><path d="m397.778 380.253c-.014 0-.027 0-.041 0-4.123 0-7.431 3.332-7.453 7.46-.022 4.142 3.364 7.518 7.506 7.54h.041c4.123 0 7.477-3.332 7.499-7.46.022-4.142-3.318-7.518-7.46-7.54z"/><path d="m180.087 424.568c-4.142 0-7.454 3.358-7.454 7.5s3.404 7.5 7.546 7.5 7.5-3.358 7.5-7.5-3.358-7.5-7.5-7.5z"/><path d="m256.01 459.539c-.014 0-.027 0-.041 0-4.123 0-7.431 3.332-7.453 7.46-.022 4.142 3.364 7.518 7.506 7.54h.041c4.123 0 7.477-3.332 7.499-7.46.022-4.142-3.318-7.518-7.46-7.54z"/><path d="m331.854 424.511c-4.142 0-7.454 3.358-7.454 7.5s3.404 7.5 7.546 7.5 7.5-3.358 7.5-7.5-3.358-7.5-7.5-7.5z"/><path d="m310.827 226.252h-.092c-.014 0-.027 0-.041 0-4.123 0-7.431 3.332-7.453 7.46-.022 4.142 3.364 7.518 7.506 7.54h.041c4.123 0 7.477-3.332 7.499-7.46.022-4.142-3.318-7.518-7.46-7.54z"/><path d="m201.378 226.252h-.092c-.014 0-.027 0-.041 0-4.123 0-7.431 3.332-7.453 7.46-.022 4.142 3.364 7.518 7.506 7.54h.041c4.123 0 7.477-3.332 7.499-7.46.022-4.142-3.318-7.518-7.46-7.54z"/><path d="m310.747 138.145h.041c4.123 0 7.477-3.332 7.499-7.46.022-4.142-3.318-7.518-7.46-7.54h-.092c-.014 0-.027 0-.041 0-4.123 0-7.431 3.332-7.453 7.46-.022 4.142 3.364 7.518 7.506 7.54z"/><path d="m201.298 138.145h.041c4.123 0 7.477-3.332 7.499-7.46.022-4.142-3.318-7.518-7.46-7.54h-.092c-.014 0-.027 0-.041 0-4.123 0-7.431 3.332-7.453 7.46-.022 4.142 3.364 7.518 7.506 7.54z"/><path d="m201.338 261.07c-4.142 0-7.5 3.358-7.5 7.5v91.355c0 4.142 3.358 7.5 7.5 7.5s7.5-3.358 7.5-7.5v-91.355c0-4.142-3.358-7.5-7.5-7.5z"/><path d="m310.695 261.07c-4.142 0-7.5 3.358-7.5 7.5v91.355c0 4.142 3.358 7.5 7.5 7.5s7.5-3.358 7.5-7.5v-91.355c0-4.142-3.358-7.5-7.5-7.5z"/><path d="m281.385 172.685h-17.915v-13.517c0-4.142-3.358-7.5-7.5-7.5s-7.5 3.358-7.5 7.5v13.517h-17.823c-4.142 0-7.5 3.358-7.5 7.5s3.358 7.5 7.5 7.5h17.823v53.637c0 4.142 3.358 7.5 7.5 7.5s7.5-3.358 7.5-7.5v-53.637h17.915c4.142 0 7.5-3.358 7.5-7.5s-3.357-7.5-7.5-7.5z"/></g></g></svg>