<svg id="Layer_1" enable-background="new 0 0 512 512" height="512" viewBox="0 0 512 512" width="512" xmlns="http://www.w3.org/2000/svg"><g><path d="m262.8 193.591h168v315.399h-168z" fill="#ffc39c" transform="matrix(0 -1 1 0 -4.49 698.091)"/><path d="m474.5 267.291h30v168h-30z" fill="#fdaa8e"/><path d="m108.366 210.888h125.839c34.698 0 62.834 28.141 62.834 62.845v110.891c0 41.356-33.523 74.872-74.86 74.872h-113.813z" fill="#ffc39c"/><path d="m234.205 210.888h-30c34.698 0 62.834 28.141 62.834 62.845v110.891c0 41.356-33.523 74.872-74.86 74.872h30c41.336 0 74.86-33.516 74.86-74.872v-110.891c0-34.704-28.136-62.845-62.834-62.845z" fill="#fdaa8e"/><path d="m157.548 366.273v-.022c0-17.159-13.91-31.068-31.068-31.068h-75.958c-17.159 0-31.068 13.91-31.068 31.068v.022c0 17.159 13.91 31.068 31.068 31.068h75.957c17.159.001 31.069-13.909 31.069-31.068z" fill="#ffc39c"/><path d="m126.48 335.183h-6.58c4.759 5.459 7.648 12.591 7.648 20.402v.022c0 17.159-13.91 31.068-31.068 31.068h-69.378c5.696 6.533 14.072 10.667 23.42 10.667h75.957c17.159 0 31.068-13.91 31.068-31.068v-.022c.001-17.159-13.909-31.069-31.067-31.069z" fill="#fdaa8e"/><path d="m160.693 304.137v-.022c0-17.159-13.91-31.068-31.068-31.068h-91.057c-17.159 0-31.068 13.91-31.068 31.068v.022c0 17.159 13.91 31.068 31.068 31.068h91.057c17.159 0 31.068-13.91 31.068-31.068z" fill="#ffc39c"/><path d="m129.625 273.046h-5.4c4.052 5.248 6.469 11.823 6.469 18.966v.022c0 17.159-13.91 31.068-31.068 31.068h-85.657c5.682 7.358 14.584 12.103 24.6 12.103h91.057c17.159 0 31.068-13.91 31.068-31.068v-.022c-.001-17.159-13.91-31.069-31.069-31.069z" fill="#fdaa8e"/><path d="m160.693 241.978v-.022c0-17.159-13.91-31.068-31.068-31.068h-91.057c-17.159 0-31.068 13.91-31.068 31.068v.022c0 17.159 13.91 31.068 31.068 31.068h91.057c17.159 0 31.068-13.909 31.068-31.068z" fill="#ffc39c"/><path d="m129.625 210.888h-5.075c3.858 5.177 6.143 11.595 6.143 18.548v.022c0 17.159-13.91 31.068-31.068 31.068h-85.982c5.664 7.599 14.719 12.521 24.925 12.521h91.057c17.159 0 31.068-13.91 31.068-31.068v-.022c0-17.159-13.909-31.069-31.068-31.069z" fill="#fdaa8e"/><path d="m173.958 428.432v-.022c0-17.159-13.91-31.068-31.068-31.068h-75.957c-17.159 0-31.068 13.91-31.068 31.068v.022c0 17.159 13.91 31.068 31.068 31.068h75.957c17.158 0 31.068-13.91 31.068-31.068z" fill="#ffc39c"/><path d="m142.89 397.341h-5.561c4.149 5.281 6.63 11.934 6.63 19.171v.022c0 17.159-13.91 31.068-31.068 31.068h-70.397c5.688 7.241 14.517 11.897 24.439 11.897h75.957c17.159 0 31.068-13.91 31.068-31.068v-.022c0-17.158-13.91-31.068-31.068-31.068z" fill="#fdaa8e"/><path d="m297.039 289.131s9.037-78.35-43.27-120.226-44.308-115.774-60.308-116.39-47.519 16.566-32.768 67.124c23.537 80.672 0 122.327 38.101 184.486 0 0 20.462 15.245 57.205 15.245s41.04-30.239 41.04-30.239z" fill="#ffc39c"/><path d="m253.769 168.905c-52.308-41.876-44.308-115.774-60.308-116.39-6.342-.244-15.12 2.312-22.49 8.63 7.735 20.799 11.158 74.424 52.798 107.76 52.308 41.876 43.27 120.226 43.27 120.226s-1.886 13.251-13.822 22.208c-3.419 2.566-1.686 8.024 2.588 8.03h.194c36.744 0 41.04-30.239 41.04-30.239s9.038-78.349-43.27-120.225z" fill="#fdaa8e"/><path d="m504.5 259.789h-55.91c-4.142 0-7.5 3.358-7.5 7.5s3.358 7.5 7.5 7.5h48.41v153.001h-204.712c7.76-12.563 12.252-27.349 12.252-43.17v-95.097c.16-1.578.632-6.915.599-14.733h111.451c4.142 0 7.5-3.358 7.5-7.5s-3.358-7.5-7.5-7.5h-112.108c-.419-5.063-1.075-10.561-2.071-16.343-5.915-34.311-21.114-62.112-43.955-80.397-30.428-24.36-39.338-61.228-45.234-85.623-4.483-18.551-7.722-31.954-19.472-32.406-13.842-.524-37.8 9.392-43.296 38.29-.774 4.069 1.898 7.996 5.967 8.77 4.068.771 7.996-1.898 8.77-5.967 3.719-19.555 19.188-25.876 27.024-26.107 2.049 2.828 4.463 12.817 6.427 20.943 6.375 26.38 16.01 66.246 50.44 93.81 47.429 37.97 40.87 109.924 40.52 113.388-.171.959-2.232 11.257-11.789 17.85-3.41 2.352-4.267 7.022-1.915 10.432 1.455 2.109 3.797 3.242 6.18 3.242 1.468 0 2.952-.43 4.252-1.327 1.141-.787 2.204-1.611 3.209-2.455v68.731c0 37.153-30.217 67.38-67.36 67.38h-48.796c5.055-6.527 8.074-14.708 8.074-23.59 0-16.934-10.975-31.344-26.182-36.517 6.073-6.818 9.772-15.793 9.772-25.62v-.022c0-12.052-5.56-22.826-14.245-29.904 10.466-6.904 17.391-18.761 17.391-32.211v-.022c0-12.733-6.206-24.041-15.749-31.069 9.543-7.028 15.749-18.335 15.749-31.068v-.022c0-8.87-3.017-17.043-8.069-23.566h6.615c1.857 29.632 5.465 56.707 25.661 89.655 1.415 2.309 3.878 3.582 6.401 3.582 1.336 0 2.689-.357 3.912-1.106 3.532-2.165 4.64-6.783 2.475-10.314-20.871-34.048-22.39-62.053-24.149-94.478-1.347-24.831-2.874-52.976-13.147-88.187-.236-.812-.461-1.613-.672-2.406-1.067-4.003-5.176-6.383-9.179-5.314-4.002 1.067-6.381 5.177-5.314 9.179.241.902.496 1.815.766 2.741 9.382 32.158 11.069 57.423 12.397 81.65h-36.169c-.032 0-.064-.002-.096-.002h-91.057c-21.266-.003-38.568 17.298-38.568 38.587 0 12.734 6.207 24.041 15.75 31.069-9.543 7.03-15.75 18.343-15.75 31.09 0 15.692 9.425 29.216 22.907 35.232-6.771 6.955-10.953 16.446-10.953 26.905 0 16.935 10.977 31.345 26.185 36.517-6.074 6.821-9.775 15.803-9.775 25.642 0 21.267 17.302 38.569 38.568 38.569h9.145c4.142 0 7.5-3.358 7.5-7.5s-3.358-7.5-7.5-7.5h-9.145c-12.996 0-23.568-10.573-23.568-23.59 0-12.996 10.573-23.568 23.568-23.568h75.958c12.995 0 23.568 10.573 23.568 23.59 0 12.996-10.573 23.568-23.568 23.568h-34.52c-4.142 0-7.5 3.358-7.5 7.5s3.358 7.5 7.5 7.5h113.81c22.734 0 43.344-9.262 58.262-24.21h224.058c4.142 0 7.5-3.358 7.5-7.5v-168.002c0-4.142-3.358-7.5-7.5-7.5zm-489.5-17.834c0-12.996 10.573-23.568 23.568-23.568h69.753c.016 0 .032.002.048.002h21.351c12.951.052 23.472 10.603 23.472 23.566v.022c0 12.996-10.573 23.568-23.568 23.568h-91.056c-12.995 0-23.568-10.572-23.568-23.59zm0 62.159c0-12.996 10.573-23.568 23.568-23.568h91.057c12.996 0 23.568 10.573 23.568 23.568v.022c0 12.996-10.573 23.568-23.568 23.568h-2.299c-.282-.006-.563-.021-.847-.021h-75.957c-.284 0-.564.015-.847.021h-11.107c-12.995 0-23.568-10.572-23.568-23.59zm35.522 85.727c-12.996 0-23.568-10.572-23.568-23.59 0-12.711 10.117-23.098 22.721-23.547h77.652c12.604.448 22.721 10.835 22.721 23.547v.022c0 12.996-10.573 23.568-23.568 23.568z"/></g></svg>