<?xml version="1.0"?>
<svg xmlns="http://www.w3.org/2000/svg" xmlns:xlink="http://www.w3.org/1999/xlink" xmlns:svgjs="http://svgjs.com/svgjs" version="1.1" width="512" height="512" x="0" y="0" viewBox="0 0 512 512" style="enable-background:new 0 0 512 512" xml:space="preserve" class=""><g>
<polygon xmlns="http://www.w3.org/2000/svg" style="" points="504.5,118.618 483.287,97.405 151.954,378.738 151.954,428.738 173.167,449.951 " fill="#38a82f" data-original="#8ca82f"/>
<polygon xmlns="http://www.w3.org/2000/svg" style="" points="447.932,62.049 173.167,336.814 64.068,227.716 7.5,284.284 151.954,428.738 483.287,97.405   " fill="#48c244" data-original="#a5c244" class=""/>
<path xmlns="http://www.w3.org/2000/svg" d="M509.803,113.315l-56.568-56.569c-1.406-1.406-3.314-2.197-5.303-2.197s-3.896,0.79-5.303,2.197L173.167,326.208  L69.372,222.413c-1.407-1.406-3.314-2.197-5.303-2.197s-3.897,0.79-5.303,2.197L2.197,278.981c-2.929,2.929-2.929,7.678,0,10.606  l165.667,165.667c1.464,1.465,3.384,2.197,5.303,2.197s3.839-0.732,5.303-2.197l331.333-331.333  C512.733,120.992,512.733,116.244,509.803,113.315z M173.167,439.344L18.107,284.285l45.962-45.962l103.795,103.795  c2.929,2.929,7.678,2.929,10.606,0L447.932,72.656l45.962,45.962L173.167,439.344z" fill="#000000" data-original="#000000" style=""/>
<g xmlns="http://www.w3.org/2000/svg">
</g>
<g xmlns="http://www.w3.org/2000/svg">
</g>
<g xmlns="http://www.w3.org/2000/svg">
</g>
<g xmlns="http://www.w3.org/2000/svg">
</g>
<g xmlns="http://www.w3.org/2000/svg">
</g>
<g xmlns="http://www.w3.org/2000/svg">
</g>
<g xmlns="http://www.w3.org/2000/svg">
</g>
<g xmlns="http://www.w3.org/2000/svg">
</g>
<g xmlns="http://www.w3.org/2000/svg">
</g>
<g xmlns="http://www.w3.org/2000/svg">
</g>
<g xmlns="http://www.w3.org/2000/svg">
</g>
<g xmlns="http://www.w3.org/2000/svg">
</g>
<g xmlns="http://www.w3.org/2000/svg">
</g>
<g xmlns="http://www.w3.org/2000/svg">
</g>
<g xmlns="http://www.w3.org/2000/svg">
</g>
</g></svg>
